# xmcd CD database file
#
# Track frame offsets:
#	150
#	18267
#	37560
#	63695
#	79350
#	100320
#	126145
#	150520
#	169012
#	187077
#	196557
#	210262
#
# Disc length: 3243 seconds
#
# Revision: 2
# Processed by: cddbd v1.5.1PL2 Copyright (c) Steve Scherf et al.
# Submitted via: CDex 1.51
#
DISCID=8f0ca90c
DTITLE=Various Artist - Smooth R&B
DYEAR=1900
DGENRE=Rhythmic Soul
TTITLE0=Marvin Gaye/ Sexual Healing
TTITLE1=The Commondores/ Easy
TTITLE2=Esrth,Wind and Fire/ That's the way of the world
TTITLE3=Harold Melvin and the Blue Notes/ If you don't know me by now
TTITLE4=the Manhattans/ Shinning Star
TTITLE5=Peaches and Herb/ Reunited
TTITLE6=Luther Vandross/ Here and now
TTITLE7=Gregory Abbott/ Shake you down
TTITLE8=Smokey Robinson/ Being with you
TTITLE9=Bill Withers/ Ain't no Sunshine
TTITLE10=Sly and the Family Stone/ If you want me to Stay
TTITLE11=Grover Washington,Jr,with Bill Withers// Just the two of us
EXTD=
EXTT0=
EXTT1=
EXTT2=
EXTT3=
EXTT4=
EXTT5=
EXTT6=
EXTT7=
EXTT8=
EXTT9=
EXTT10=
EXTT11=
PLAYORDER=
